<svg width="800" height="100%" id="svg" viewBox="0 0 1440 590" xmlns="http://www.w3.org/2000/svg" class="transition duration-300 ease-in-out delay-150"><defs><linearGradient id="gradient" x1="0%" y1="50%" x2="100%" y2="50%"><stop offset="5%" stop-color="#28C85A"></stop><stop offset="95%" stop-color="#65de31"></stop></linearGradient></defs><path d="M 0,600 L 0,300 C 92.5263157894737,273.67464114832535 185.0526315789474,247.34928229665073 277,249 C 368.9473684210526,250.65071770334927 460.3157894736843,280.2775119617225 568,258 C 675.6842105263157,235.7224880382775 799.684210526316,161.54066985645932 901,135 C 1002.315789473684,108.45933014354067 1080.9473684210527,129.55980861244018 1167,115 C 1253.0526315789473,100.4401913875598 1346.5263157894738,50.2200956937799 1440,0 L 1440,600 L 0,600 Z" stroke="none" stroke-width="0" fill="url(#gradient)" fill-opacity="0.53" class="transition-all duration-300 ease-in-out delay-150 path-0" transform="rotate(-180 720 300)"></path><defs><linearGradient id="gradient" x1="0%" y1="50%" x2="100%" y2="50%"><stop offset="5%" stop-color="#F78DA7"></stop><stop offset="95%" stop-color="#8ED1FC"></stop></linearGradient></defs><path d="M 0,600 L 0,500 C 86.88038277511961,522.9377990430621 173.76076555023923,545.8755980861243 284,521 C 394.2392344497608,496.12440191387566 527.8373205741626,423.43540669856463 624,403 C 720.1626794258374,382.56459330143537 778.88995215311,414.38277511961724 856,407 C 933.11004784689,399.61722488038276 1028.6028708133972,353.0334928229665 1129,312 C 1229.3971291866028,270.9665071770335 1334.6985645933014,235.48325358851676 1440,200 L 1440,600 L 0,600 Z" stroke="none" stroke-width="0" fill="url(#gradient)" fill-opacity="1" class="transition-all duration-300 ease-in-out delay-150 path-1" transform="rotate(-180 720 300)"></path></svg>
